<svg width="48" height="46" viewBox="0 0 48 46" fill="none" xmlns="http://www.w3.org/2000/svg">
<rect x="1" y="1" width="46" height="44" rx="6" fill="#67D783" fill-opacity="0.57" stroke="#1E1E1E" stroke-width="2"/>
<path opacity="0.2" d="M9.5 21.875H17.4875C17.7466 21.8736 17.998 21.9627 18.1983 22.1271C18.3986 22.2914 18.5352 22.5206 18.5844 22.775C18.7992 23.7868 19.355 24.6942 20.1588 25.3452C20.9626 25.9963 21.9656 26.3515 23 26.3515C24.0344 26.3515 25.0374 25.9963 25.8412 25.3452C26.645 24.6942 27.2008 23.7868 27.4156 22.775C27.4648 22.5206 27.6014 22.2914 27.8017 22.1271C28.002 21.9627 28.2534 21.8736 28.5125 21.875H36.5V15.125C36.5 14.5283 36.2629 13.956 35.841 13.534C35.419 13.1121 34.8467 12.875 34.25 12.875H11.75C11.1533 12.875 10.581 13.1121 10.159 13.534C9.73705 13.956 9.5 14.5283 9.5 15.125V21.875Z" fill="#1E1E1E"/>
<path d="M34.25 12.875H11.75C10.5074 12.875 9.5 13.8824 9.5 15.125V30.875C9.5 32.1176 10.5074 33.125 11.75 33.125H34.25C35.4926 33.125 36.5 32.1176 36.5 30.875V15.125C36.5 13.8824 35.4926 12.875 34.25 12.875Z" stroke="#1E1E1E" stroke-width="2" stroke-linecap="round" stroke-linejoin="round"/>
<path d="M9.5 21.875H17.4875C17.7466 21.8736 17.998 21.9628 18.1983 22.1271C18.3986 22.2914 18.5352 22.5206 18.5844 22.775C18.7992 23.7868 19.355 24.6942 20.1588 25.3452C20.9626 25.9963 21.9656 26.3515 23 26.3515C24.0344 26.3515 25.0374 25.9963 25.8412 25.3452C26.645 24.6942 27.2008 23.7868 27.4156 22.775C27.4648 22.5206 27.6014 22.2914 27.8017 22.1271C28.002 21.9628 28.2534 21.8736 28.5125 21.875H36.5" stroke="#1E1E1E" stroke-width="2" stroke-linecap="round" stroke-linejoin="round"/>
<path d="M9.5 17.375H36.5" stroke="#1E1E1E" stroke-width="2" stroke-linecap="round" stroke-linejoin="round"/>
</svg>
