<svg width="48" height="46" viewBox="0 0 48 46" fill="none" xmlns="http://www.w3.org/2000/svg">
<rect x="1" y="1" width="46" height="44" rx="6" fill="#F65B22" fill-opacity="0.57" stroke="#1E1E1E" stroke-width="2"/>
<path opacity="0.2" d="M36.5 16.75H11.5C10.8096 16.75 10.25 17.3096 10.25 18V35.5C10.25 36.1904 10.8096 36.75 11.5 36.75H36.5C37.1904 36.75 37.75 36.1904 37.75 35.5V18C37.75 17.3096 37.1904 16.75 36.5 16.75Z" fill="#1E1E1E"/>
<path d="M36.5 16.75H11.5C10.8096 16.75 10.25 17.3096 10.25 18V35.5C10.25 36.1904 10.8096 36.75 11.5 36.75H36.5C37.1904 36.75 37.75 36.1904 37.75 35.5V18C37.75 17.3096 37.1904 16.75 36.5 16.75Z" stroke="#1E1E1E" stroke-width="2" stroke-linecap="round" stroke-linejoin="round"/>
<path d="M18.375 16.75V11.125C18.375 9.63316 18.9676 8.20242 20.0225 7.14752C21.0774 6.09263 22.5082 5.5 24 5.5C25.4918 5.5 26.9226 6.09263 27.9775 7.14752C29.0324 8.20242 29.625 9.63316 29.625 11.125V16.75" stroke="#1E1E1E" stroke-width="2" stroke-linecap="round" stroke-linejoin="round"/>
<path d="M24 28.625C25.0355 28.625 25.875 27.7855 25.875 26.75C25.875 25.7145 25.0355 24.875 24 24.875C22.9645 24.875 22.125 25.7145 22.125 26.75C22.125 27.7855 22.9645 28.625 24 28.625Z" fill="#1E1E1E"/>
</svg>
