<svg width="48" height="46" viewBox="0 0 48 46" fill="none" xmlns="http://www.w3.org/2000/svg">
<rect x="1" y="1" width="46" height="44" rx="6" fill="#4797F7" fill-opacity="0.57" stroke="#1E1E1E" stroke-width="2"/>
<path opacity="0.2" d="M24 35C30.6274 35 36 29.6274 36 23C36 16.3726 30.6274 11 24 11C17.3726 11 12 16.3726 12 23C12 29.6274 17.3726 35 24 35Z" fill="#1E1E1E"/>
<path d="M24 35C30.6274 35 36 29.6274 36 23C36 16.3726 30.6274 11 24 11C17.3726 11 12 16.3726 12 23C12 29.6274 17.3726 35 24 35Z" stroke="#1E1E1E" stroke-width="2" stroke-linecap="round" stroke-linejoin="round"/>
<path d="M23 22H24V29H25" stroke="#1E1E1E" stroke-width="2" stroke-linecap="round" stroke-linejoin="round"/>
<path d="M23.75 19C24.5784 19 25.25 18.3284 25.25 17.5C25.25 16.6716 24.5784 16 23.75 16C22.9216 16 22.25 16.6716 22.25 17.5C22.25 18.3284 22.9216 19 23.75 19Z" fill="#1E1E1E"/>
</svg>
