<svg width="48" height="46" viewBox="0 0 48 46" fill="none" xmlns="http://www.w3.org/2000/svg">
<rect x="1" y="1" width="46" height="44" rx="6" fill="#883A22" fill-opacity="0.57" stroke="#1E1E1E" stroke-width="2"/>
<path opacity="0.2" d="M13.4375 34.75V10.3125C13.4375 10.0307 13.5494 9.76046 13.7487 9.5612C13.948 9.36194 14.2182 9.25 14.5 9.25H31.5C31.7818 9.25 32.052 9.36194 32.2513 9.5612C32.4506 9.76046 32.5625 10.0307 32.5625 10.3125V34.75H13.4375Z" fill="#1E1E1E"/>
<path d="M9.1875 34.75H36.8125" stroke="#1E1E1E" stroke-width="2" stroke-linecap="round" stroke-linejoin="round"/>
<path d="M13.4375 34.75V10.3125C13.4375 10.0307 13.5494 9.76046 13.7487 9.5612C13.948 9.36194 14.2182 9.25 14.5 9.25H31.5C31.7818 9.25 32.052 9.36194 32.2513 9.5612C32.4506 9.76046 32.5625 10.0307 32.5625 10.3125V34.75" stroke="#1E1E1E" stroke-width="2" stroke-linecap="round" stroke-linejoin="round"/>
<path d="M26.7188 23.5938C27.599 23.5938 28.3125 22.8802 28.3125 22C28.3125 21.1198 27.599 20.4062 26.7188 20.4062C25.8385 20.4062 25.125 21.1198 25.125 22C25.125 22.8802 25.8385 23.5938 26.7188 23.5938Z" fill="#1E1E1E"/>
</svg>
