<svg width="19" height="16" viewBox="0 0 19 16" fill="none" xmlns="http://www.w3.org/2000/svg">
<path d="M6.91944 9.92163C6.58064 9.42646 6.38953 8.82706 6.38953 8.18421C6.38953 6.46418 7.77944 5.07428 9.49948 5.07428C11.2195 5.07428 12.6094 6.46418 12.6094 8.18421C12.6094 9.90425 11.2195 11.2942 9.49948 11.2942" stroke="#AEAEAE" stroke-linecap="round" stroke-linejoin="round"/>
<path d="M14.3303 2.60711C12.8622 1.56466 11.2116 1 9.50026 1C6.43376 1 3.57571 2.80691 1.58638 5.93425C0.804541 7.15915 0.804541 9.21798 1.58638 10.4429C3.57571 13.5702 6.43376 15.3771 9.50026 15.3771C12.5668 15.3771 15.4248 13.5702 17.4142 10.4429C18.196 9.21798 18.196 7.15915 17.4142 5.93425" stroke="#AEAEAE" stroke-linecap="round" stroke-linejoin="round"/>
</svg>
