<svg width="24" height="24" viewBox="0 0 24 24" fill="none" xmlns="http://www.w3.org/2000/svg">
<path d="M13.6901 10.3726C14.0289 10.8677 14.22 11.4671 14.22 12.11C14.22 13.83 12.8301 15.2199 11.11 15.2199C9.38998 15.2199 8.00005 13.83 8.00005 12.11C8.00005 10.3899 9.38998 9.00001 11.11 9.00001" stroke="#AEAEAE" stroke-linecap="round" stroke-linejoin="round"/>
<path d="M6.67034 17.77C8.13846 18.8125 9.789 19.3771 11.5004 19.3771C14.5669 19.3771 17.4249 17.5702 19.4142 14.4429C20.1961 13.218 20.1961 11.1592 19.4142 9.93428C17.4249 6.80694 14.5669 5.00003 11.5004 5.00003C8.43382 5.00003 5.57577 6.80694 3.58643 9.93428C2.8046 11.1592 2.8046 13.218 3.58643 14.4429" stroke="#AEAEAE" stroke-linecap="round" stroke-linejoin="round"/>
<path d="M2.31018 19.0537L21.85 5.37178" stroke="#838282" stroke-linecap="round"/>
</svg>
